<?xml version="1.0" standalone="no"?>
<!DOCTYPE svg PUBLIC "-//W3C//DTD SVG 20010904//EN"
 "http://www.w3.org/TR/2001/REC-SVG-20010904/DTD/svg10.dtd">
<svg version="1.0" xmlns="http://www.w3.org/2000/svg"
 width="200.000000pt" height="200.000000pt" viewBox="0 0 200.000000 200.000000"
 preserveAspectRatio="xMidYMid meet">
<metadata>
Created by potrace 1.11, written by Peter Selinger 2001-2013
</metadata>
<g transform="translate(0.000000,200.000000) scale(0.100000,-0.100000)"
fill="#000000" stroke="none">
<path d="M804 1839 c-3 -5 -18 -9 -34 -9 -16 0 -31 -4 -35 -9 -3 -5 -19 -12
-35 -16 -44 -10 -165 -76 -220 -120 -32 -25 -140 -134 -160 -160 -20 -25 -90
-141 -90 -148 0 -2 -8 -22 -17 -43 -9 -22 -17 -41 -18 -44 -1 -3 -4 -12 -7
-20 -38 -101 -53 -363 -22 -394 14 -14 91 -16 705 -16 379 0 689 -3 689 -7 -1
-5 -24 -19 -53 -34 -114 -56 -202 -105 -210 -116 -4 -7 -14 -13 -22 -13 -8 0
-37 -14 -63 -30 -27 -17 -54 -30 -59 -30 -6 0 -16 -7 -23 -15 -7 -8 -21 -15
-31 -15 -11 0 -19 -4 -19 -8 0 -4 -12 -13 -27 -19 -16 -7 -57 -28 -93 -48 -36
-21 -92 -51 -125 -68 -33 -18 -62 -34 -65 -38 -11 -13 -69 -36 -77 -30 -5 3
-8 62 -8 131 1 69 -3 131 -8 138 -11 14 -413 17 -436 3 -12 -8 -10 -16 8 -53
100 -192 308 -355 536 -418 148 -41 380 -29 513 26 66 28 107 49 120 61 7 7
18 13 23 13 6 0 27 12 47 28 182 137 301 323 344 537 22 111 16 302 -10 306
-4 1 -314 2 -690 4 -503 1 -686 5 -694 13 -9 9 -7 12 9 12 12 0 24 4 28 9 3 6
18 16 33 23 15 8 62 33 105 56 42 23 112 61 155 84 42 23 93 51 112 62 19 12
69 39 110 60 41 21 89 46 105 55 116 68 204 109 207 98 3 -7 4 -65 3 -130 0
-64 2 -123 7 -130 10 -17 438 -19 445 -2 4 13 -56 119 -87 153 -11 12 -20 26
-20 32 0 5 -7 10 -15 10 -8 0 -15 5 -15 11 0 6 -15 24 -32 39 -18 16 -46 41
-63 55 -74 64 -202 128 -325 161 -61 17 -386 19 -396 3z"/>
</g>
</svg>
